<?xml version="1.0" encoding="UTF-8"?>
<svg id="Layer_2" data-name="Layer 2" xmlns="http://www.w3.org/2000/svg" viewBox="0 0 360 360">
  <defs>
    <style>
      .cls-1 {
        fill: #f8571c;
      }

      .cls-1, .cls-2, .cls-3, .cls-4, .cls-5, .cls-6, .cls-7, .cls-8, .cls-9, .cls-10, .cls-11, .cls-12, .cls-13 {
        stroke-width: 0px;
      }

      .cls-2 {
        fill: #f64e28;
      }

      .cls-3 {
        fill: #fe9700;
      }

      .cls-4 {
        fill: #fef7bc;
      }

      .cls-5 {
        fill: #fe9200;
      }

      .cls-6 {
        fill: #feb22c;
      }

      .cls-7 {
        fill: #fd6b01;
      }

      .cls-8 {
        fill: #fec654;
      }

      .cls-9 {
        fill: #fecf67;
      }

      .cls-10 {
        fill: #fec24b;
      }

      .cls-11 {
        fill: #fef38e;
      }

      .cls-12 {
        fill: #fede88;
      }

      .cls-13 {
        fill: #fed26e;
      }
    </style>
  </defs>
  <g id="Layer_1-2" data-name="Layer 1">
    <g>
      <path class="cls-7" d="m241.55,135.36c-.35,4.22-1.27,8.35-2.09,12.5-1.42,7.21-2.86,14.42-2.71,21.82.06,3,.42,5.97,1.44,8.83,2.01,5.62,6.08,8.58,11.93,9.3,7.22.89,12.75-1.96,17-7.63,1.91-2.54,3.27-5.37,4.44-8.31,1-2.51,3.58-3.64,5.97-2.72.76.29,1.38.79,1.91,1.4,11.17,12.81,18.07,27.6,20.64,44.42,1.86,12.17,1.37,24.28-.7,36.37-4.15,24.19-16.5,43.6-34.75,59.57-.09.08-.2.13-.3.19-1-.28-.87-1.24-.93-1.88-.39-3.95-1.09-7.86-1.8-11.75-1.42-7.82-3.23-15.55-5.6-23.14-3.92-12.55-8.74-24.71-15.51-36.03-5.55-9.28-11.83-18-19.79-25.42-3.56-3.32-7.36-6.3-11.37-9.05-2.98-2.06-6.27-3.58-9.34-5.46-.08-.18-.18-.35-.23-.54-2.31-7.79-3.27-15.73-2.92-23.86.35-8.23,1.83-16.22,4.32-24.05.85-2.66,1.78-5.29,2.88-7.86.43-1,.33-1.91-.55-2.58-.84-.64-1.72-.48-2.54.13-.13.1-.26.18-.39.27-8.61,5.95-16.52,12.71-23.51,20.51-6,6.69-11.17,13.97-14.98,22.14-1.14,2.45-2.16,4.96-3.24,7.45-.73.66-1.57,1.09-2.49,1.41-9.52,3.31-17.82,8.67-25.22,15.4-4.18,3.81-8.13,7.89-11.66,12.33-5.41,6.81-10.14,14.08-14.18,21.78-3.3,6.29-6.18,12.77-8.68,19.42-3.94,10.49-7.06,21.21-9.31,32.18-.14.66-.12,1.48-.96,1.81-3.92-4.7-7.25-9.8-10.26-15.11-8.26-14.58-13.44-30.23-16.02-46.76-.31-1.96-.6-3.94-.58-5.94.43-1.19.84-2.38,1.31-3.56,4.23-10.77,8.95-21.31,14.59-31.43,3.98-7.14,8.3-14.05,13.12-20.66,2.79-3.82,5.61-7.62,8.79-11.13,1.79-1.97,3.47-4.05,5.31-5.97,1.06-1.11,1.98-2.4,3.41-3.12.34,5.5.74,11,1.95,16.39.95,4.22,2.22,8.32,4.56,12.02.27.42.57.83,1.07,1.55-.23-3.63.02-6.87.51-10.09,1.37-9.02,4.54-17.42,8.79-25.43,6.35-11.96,14.75-22.38,24.31-31.9.08-.08.19-.14.29-.21.36.02.71,0,1.06-.12,3.9-1.38,7.91-2.36,11.98-3.11,4.53-.84,9.1-1.38,13.7-1.53,3.3-.11,6.59.09,9.89.42,3.16.31,6.3.75,9.4,1.38,4.83.97,9.58,2.29,14.21,4.05,5.79,2.2,11.32,4.91,16.67,8.04,5.26,3.08,10.21,6.61,14.93,10.46.92.75,2.38,1.2,2.26,2.83Z"/>
      <path class="cls-2" d="m241.55,135.36c.11-1.63-1.34-2.08-2.26-2.83-4.72-3.85-9.66-7.38-14.93-10.46-5.34-3.12-10.88-5.83-16.67-8.04-4.62-1.76-9.37-3.08-14.21-4.05-3.1-.62-6.24-1.06-9.4-1.38-3.3-.33-6.59-.53-9.89-.42-4.6.15-9.17.69-13.7,1.53-4.06.76-8.07,1.73-11.98,3.11-.35.13-.7.14-1.06.12,2.91-3.02,5.75-6.1,8.08-9.6,6.06-9.09,9.2-19.06,8.97-30.02-.21-10.14-3.93-19.03-9.83-27.12-1.86-2.55-3.9-4.96-6.08-7.24-1.47-1.53-1.96-3.26-1.12-5.26.77-1.85,2.35-2.85,4.6-2.75,17.32.79,34.07,3.9,49.47,12.36,16.39,9.01,27.6,22.54,34.45,39.82,5.37,13.54,7.33,27.62,6.55,42.12-.17,3.15-.47,6.29-.82,9.42-.03.23-.12.45-.19.68Z"/>
      <path class="cls-5" d="m86.31,294.3c.84-.32.82-1.14.96-1.81,2.25-10.97,5.37-21.69,9.31-32.18,2.5-6.66,5.38-13.13,8.68-19.42,4.04-7.7,8.77-14.97,14.18-21.78,3.53-4.44,7.48-8.53,11.66-12.33,7.4-6.73,15.7-12.09,25.22-15.4.92-.32,1.77-.76,2.49-1.41-.06.23-.1.47-.18.69-3.42,8.91-6.4,17.93-7.41,27.49-.48,4.59-.43,9.16.22,13.72.85,5.92,2.71,11.54,4.99,17.04,1.08,2.59,1.96,5.22,1.87,8.09-.15,4.43-4.49,7.17-8.52,5.33-1.47-.67-2.7-1.69-3.85-2.81-5.45-5.3-9.13-11.64-11.14-18.96-.26-.96-.74-1.69-1.76-1.89-.96-.18-1.59.37-2.09,1.1-2.13,3.1-3.93,6.38-5.22,9.92-1.48,3.24-2.47,6.65-3.35,10.09-1.28,5.03-2.1,10.14-2.26,15.33-.32,1.75-.31,3.5,0,5.25.03,3.15.52,6.25,1.08,9.34.31,1.35.61,2.69.92,4.04-.31,1.03-.62,2.05-.93,3.08-2.05,6.9-3.67,13.89-4.67,21.02-.12.87.11,1.99-.91,2.59-3.33-1.79-6.31-4.08-9.32-6.34-4.21-3.17-8.15-6.65-11.83-10.41-2.9-2.96-5.73-6-8.15-9.38Z"/>
      <path class="cls-3" d="m115.6,320.43c1.02-.6.79-1.72.91-2.59,1-7.13,2.62-14.12,4.67-21.02.31-1.03.62-2.05.93-3.07.4,1.14.79,2.28,1.19,3.41.34,1.25.75,2.48,1.39,3.62.21,1.04.68,1.97,1.21,2.87.36,1.1.95,2.1,1.51,3.11,1.09,1.9,2.1,3.85,3.53,5.53.1.21.16.45.3.64,2.86,4.1,6.23,7.74,9.93,11.09.41.37.87.71,1.37.94,8.59,4.04,17.58,6.72,26.95,8.24,5.31.87,10.66,1.11,16.01,1.36,1.38.06,2.76-.27,4.17-.24,2.99.06,5.95-.39,8.89-.77,4.57-.59,9.08-1.53,13.51-2.81,1.95-.56,4.08-.89,5.73-2.01,4.45-3.03,8.39-6.68,11.72-10.95,1.33-1.5,2.54-3.08,3.59-4.79.73-1.07,1.51-2.11,1.99-3.33.44-.89,1.24-1.6,1.36-2.66.78-1.01,1.27-2.17,1.71-3.36,1.12-2.31,2.06-4.69,2.62-7.2.08-.23.17-.45.23-.68,1.83-6.53,2.39-13.17,1.75-19.91-.59-6.2-2.06-12.16-4.82-17.78.06-.47-.24-.83-.42-1.22-1.46-3.16-3.28-6.11-5.17-9.03-5.47-8.46-11.84-16.25-18.14-24.08-4.34-5.4-8.37-10.98-11.22-17.33-1.17-2.61-2.35-5.23-3-8.04,3.08,1.88,6.36,3.4,9.34,5.46,4,2.76,7.8,5.74,11.37,9.05,7.97,7.42,14.25,16.14,19.79,25.42,6.76,11.32,11.59,23.48,15.51,36.03,2.37,7.59,4.18,15.32,5.6,23.14.71,3.89,1.41,7.8,1.8,11.75.06.64-.06,1.6.93,1.88-3.82,3.47-8,6.48-12.31,9.3-13.91,9.07-29.04,15.1-45.41,17.97-9.22,1.62-18.5,1.84-27.82,1.3-12.17-.7-24.08-2.77-35.7-6.5-9.23-2.96-18.01-6.91-26.31-11.93-.41-.25-.79-.53-1.18-.8Z"/>
      <path class="cls-1" d="m105.98,150.62c-1.43.71-2.35,2.01-3.41,3.12-1.84,1.93-3.52,4-5.31,5.97-3.19,3.51-6.01,7.31-8.79,11.13-4.82,6.6-9.13,13.52-13.12,20.66-5.64,10.12-10.36,20.66-14.59,31.43-.46,1.18-.87,2.37-1.31,3.56-.36-1.28-.3-2.62-.35-3.92-1.22-34.43,8.1-65.3,30.95-91.6,2.81-3.23,5.84-6.25,9.02-9.12,1.69-1.53,3.56-1.8,5.39-.82,1.81.97,2.61,2.71,2.39,4.93-.73,7.56-1.03,15.15-.87,22.75.01.64,0,1.28-.01,1.92Z"/>
      <path class="cls-11" d="m199.99,198.36c.66,2.81,1.83,5.43,3,8.04,2.85,6.35,6.88,11.93,11.22,17.33,6.3,7.84,12.67,15.62,18.14,24.08,1.88,2.92,3.7,5.87,5.17,9.03.18.39.48.75.42,1.22-.81-.58-1.42-.44-2.16.3-1.25,1.27-2.61,2.46-4.02,3.55-5.58,4.34-11.49,8.13-17.98,11.01-7.68,3.39-15.69,5.45-24.05,5.96-5.6.34-11.23.14-16.76-.95-7.99-1.57-15.53-4.34-22.64-8.35-8.8-4.98-16.29-11.51-22.97-19.04-.43-.49-.93-.88-1.64-.85,1.3-3.54,3.09-6.82,5.22-9.92.5-.73,1.14-1.27,2.09-1.1,1.02.19,1.5.92,1.76,1.89,2.01,7.32,5.69,13.66,11.14,18.96,1.15,1.12,2.38,2.14,3.85,2.81,4.03,1.84,8.37-.91,8.52-5.33.09-2.87-.79-5.5-1.87-8.09-2.29-5.5-4.15-11.12-4.99-17.04-.65-4.56-.7-9.13-.22-13.72,1-9.56,3.99-18.58,7.41-27.49.08-.22.12-.46.18-.69,1.08-2.48,2.1-5,3.24-7.45,3.81-8.18,8.97-15.45,14.98-22.14,7-7.79,14.9-14.56,23.51-20.51.13-.09.26-.18.39-.27.82-.61,1.71-.76,2.54-.13.88.67.98,1.57.55,2.58-1.1,2.57-2.03,5.2-2.88,7.86-2.49,7.83-3.98,15.83-4.32,24.05-.34,8.13.61,16.07,2.92,23.86.06.19.16.36.23.54Z"/>
      <path class="cls-4" d="m125.73,249.68c.71-.03,1.2.36,1.64.85,6.67,7.53,14.16,14.07,22.97,19.04,7.1,4.02,14.65,6.78,22.64,8.35,5.54,1.09,11.17,1.29,16.76.95,8.35-.51,16.37-2.57,24.05-5.96,6.49-2.87,12.4-6.67,17.98-11.01,1.41-1.1,2.76-2.28,4.02-3.55.73-.74,1.34-.88,2.16-.3,2.76,5.61,4.23,11.58,4.82,17.78.65,6.74.08,13.38-1.75,19.91-.06.23-.15.45-.23.68-.49-.07-.82.26-1.18.5-1.46.96-2.91,1.94-4.37,2.9-5.01,3.3-10.34,6.03-15.89,8.26-7.1,2.85-14.41,4.98-22.05,5.89-5.21.62-10.39,1.12-15.67.76-3.57-.25-7.12-.5-10.65-1.03-5.04-.76-9.96-2.08-14.77-3.71-5.93-2.02-11.59-4.65-17.04-7.76-4.95-2.83-9.6-6.08-14.08-9.61-1.27-1-2.3-2.33-3.88-2.92-.57-3.09-1.05-6.19-1.08-9.34,0-1.75,0-3.5,0-5.25.16-5.2.98-10.3,2.26-15.33.88-3.44,1.87-6.85,3.35-10.09Z"/>
      <path class="cls-12" d="m121.19,289.7c1.58.59,2.61,1.92,3.88,2.92,4.48,3.52,9.12,6.78,14.08,9.61,5.45,3.11,11.11,5.75,17.04,7.76,4.82,1.64,9.73,2.95,14.77,3.71,3.53.53,7.09.78,10.65,1.03,5.27.37,10.46-.13,15.67-.76,7.63-.91,14.95-3.04,22.05-5.89,5.55-2.23,10.87-4.96,15.89-8.26,1.46-.96,2.91-1.94,4.37-2.9.36-.24.69-.57,1.18-.5-.55,2.52-1.5,4.89-2.62,7.2-.56-.03-.97.27-1.42.55-2.03,1.25-4.04,2.57-6.14,3.69-8.08,4.32-16.54,7.66-25.51,9.64-5.6,1.23-11.25,1.99-16.97,2.17-5.81.18-11.59-.21-17.35-1.14-5.24-.85-10.37-2.09-15.36-3.81-5.43-1.87-10.68-4.17-15.72-6.95-4.26-2.35-8.36-4.94-12.3-7.79-1.34-.97-2.47-2.25-4.08-2.85-.4-1.14-.79-2.28-1.19-3.41-.31-1.35-.61-2.69-.92-4.04Z"/>
      <path class="cls-3" d="m120.11,275.11c0,1.75,0,3.5,0,5.25-.31-1.75-.31-3.5,0-5.25Z"/>
      <path class="cls-6" d="m229.51,317.78c-3.33,4.27-7.27,7.92-11.72,10.95-1.64,1.12-3.77,1.45-5.73,2.01-4.44,1.27-8.95,2.21-13.51,2.81-2.95.38-5.91.84-8.89.77-1.4-.03-2.78.3-4.17.24-5.35-.25-10.7-.49-16.01-1.36-9.37-1.53-18.36-4.21-26.95-8.24-.5-.23-.96-.57-1.37-.94-3.7-3.35-7.08-6.99-9.93-11.09-.13-.19-.2-.42-.3-.64.42,0,.74.25,1.08.45,5.17,3.16,10.56,5.89,16.17,8.2,6.16,2.53,12.53,4.36,19.06,5.65,5.27,1.04,10.6,1.47,15.95,1.73,2.02.1,4.05-.07,6.08-.16,4.45-.19,8.85-.71,13.23-1.5,7.75-1.4,15.19-3.76,22.4-6.9,1.53-.66,2.92-1.65,4.59-1.98Z"/>
      <path class="cls-10" d="m229.51,317.78c-1.67.33-3.06,1.32-4.59,1.98-7.22,3.14-14.66,5.5-22.4,6.9-4.38.79-8.77,1.31-13.23,1.5-2.03.09-4.06.25-6.08.16-5.35-.26-10.68-.69-15.95-1.73-6.54-1.28-12.9-3.12-19.06-5.65-5.61-2.31-11-5.04-16.17-8.2-.34-.21-.66-.45-1.08-.45-1.43-1.68-2.44-3.63-3.53-5.53,1.64.66,2.99,1.81,4.47,2.73,6.65,4.15,13.61,7.66,21,10.28,6.46,2.29,13.07,3.92,19.89,4.79,3.59.46,7.19.75,10.79.88,4.1.15,8.18-.25,12.26-.67,4.04-.42,8.01-1.14,11.94-2.1,8.52-2.08,16.62-5.25,24.32-9.47.34-.19.68-.2,1.03-.21-1.05,1.71-2.27,3.29-3.59,4.79Z"/>
      <path class="cls-13" d="m123.3,297.16c1.61.59,2.74,1.88,4.08,2.85,3.95,2.85,8.04,5.43,12.3,7.79,5.04,2.78,10.29,5.08,15.72,6.95,5,1.72,10.13,2.96,15.36,3.81,5.76.93,11.54,1.32,17.35,1.14,5.72-.18,11.38-.94,16.97-2.17,8.98-1.98,17.43-5.32,25.51-9.64,2.1-1.12,4.11-2.44,6.14-3.69.45-.28.86-.58,1.42-.55-.44,1.19-.93,2.34-1.71,3.36-.54-.09-.88.32-1.28.55-2,1.15-3.95,2.41-6,3.45-7.52,3.81-15.37,6.72-23.6,8.6-5.43,1.24-10.94,1.95-16.48,2.22-5.01.24-10.01-.02-15.01-.64-5.1-.63-10.12-1.6-15.03-3.05-11.53-3.41-22.11-8.78-31.86-15.8-.8-.58-1.51-1.29-2.5-1.56-.63-1.14-1.05-2.36-1.39-3.62Z"/>
      <path class="cls-8" d="m233.1,312.99c-.36.01-.69.02-1.03.21-7.69,4.22-15.8,7.39-24.32,9.47-3.93.96-7.91,1.68-11.94,2.1-4.08.42-8.16.82-12.26.67-3.6-.13-7.2-.42-10.79-.88-6.82-.88-13.43-2.5-19.89-4.79-7.39-2.62-14.35-6.13-21-10.28-1.48-.92-2.82-2.07-4.47-2.73-.57-1-1.15-2-1.51-3.11.65.01,1.11.45,1.58.79,3.54,2.6,7.27,4.89,11.13,6.96,8.61,4.62,17.64,8.15,27.23,10.14,5.25,1.09,10.56,1.86,15.92,1.97,3.3.07,6.61.12,9.92-.17,3.09-.27,6.17-.57,9.21-1.1,6.32-1.12,12.49-2.79,18.48-5.11,3.46-1.34,6.81-2.9,10.12-4.57,1.88-.95,3.63-2.14,5.6-2.9-.48,1.22-1.26,2.26-1.99,3.33Z"/>
      <path class="cls-9" d="m235.09,309.66c-1.97.77-3.72,1.96-5.6,2.9-3.31,1.67-6.66,3.23-10.12,4.57-5.99,2.33-12.16,4-18.48,5.11-3.04.54-6.12.84-9.21,1.1-3.31.29-6.62.24-9.92.17-5.37-.11-10.67-.87-15.92-1.97-9.59-2-18.62-5.52-27.23-10.14-3.86-2.07-7.59-4.36-11.13-6.96-.47-.34-.93-.78-1.58-.79-.53-.9-1-1.84-1.21-2.87.99.27,1.7.99,2.5,1.56,9.75,7.02,20.33,12.39,31.86,15.8,4.91,1.45,9.93,2.42,15.03,3.05,5,.61,10,.88,15.01.64,5.54-.27,11.05-.98,16.48-2.22,8.23-1.88,16.08-4.79,23.6-8.6,2.06-1.04,4-2.3,6-3.45.4-.23.74-.64,1.28-.55-.11,1.06-.91,1.77-1.36,2.66Z"/>
    </g>
  </g>
</svg>