<?xml version="1.0" encoding="UTF-8"?>
<svg id="Layer_2" data-name="Layer 2" xmlns="http://www.w3.org/2000/svg" viewBox="0 0 309 309">
  <defs>
    <style>
      .cls-1 {
        stroke-width: 0px;
      }
    </style>
  </defs>
  <g id="Layer_1-2" data-name="Layer 1">
    <g>
      <path class="cls-1" d="m178.91,218.26h11.04v11.51h-45.14v-11.22h10.65v-92.84h-10.59v-11.59h33.73v13.31c.35.06.7.11,1.06.17.77-.98,1.57-1.95,2.31-2.96,7.52-10.22,17.84-14.1,30.11-12.64,12.09,1.45,19.86,8.91,24.02,19.88,5.89,15.52,5.72,31.38-.33,46.73-9.13,23.18-33.92,29.72-54.02,14.76-.77-.58-1.59-1.09-2.84-1.93v26.81Zm-.18-58.72c0,5.3-.06,10.61.04,15.91.03,1.42.13,3.14.92,4.2,8.8,11.78,26.41,10.1,32.27-3.3,5.19-11.85,4.98-24.25,1.36-36.47-2.59-8.72-9.52-12.67-17.96-11.16-9.25,1.65-16.63,9.37-16.64,17.4,0,4.47,0,8.95,0,13.42Z"/>
      <path class="cls-1" d="m130.22,125.48h-20.94v61.91h12.93v11.59h-47.13v-11.34h10.65v-62.06h-11.34v-11.78h11.27c.39-4.54.66-8.49,1.07-12.41,1.83-17.43,11.89-26.53,29.33-26.51,2.32,0,4.69,0,6.94.46,20.53,4.2,16.64,2.69,16.24,22.28-2.07,0-4.16,0-6.25,0-1.96,0-3.91,0-6.39,0,.57-5.34-.12-9.6-6.11-10.75-5.46-1.05-9.96,1.31-10.67,6.79-.82,6.36-.85,12.83-1.26,19.85h21.67v11.98Z"/>
    </g>
  </g>
</svg>