<?xml version="1.0" encoding="UTF-8"?>
<svg id="Layer_2" data-name="Layer 2" xmlns="http://www.w3.org/2000/svg" viewBox="0 0 309 309">
  <defs>
    <style>
      .cls-1 {
        fill: #2b2b2b;
      }

      .cls-1, .cls-2 {
        stroke-width: 0px;
      }

      .cls-2 {
        fill: #2a2a2a;
      }
    </style>
  </defs>
  <g id="Layer_1-2" data-name="Layer 1">
    <g>
      <path class="cls-2" d="m133.57,153.03c0-5.07.23-10.15-.08-15.19-.22-3.63,1.18-4.45,4.54-4.37,3.07.08,4.89.3,4.77,4.18-.27,8.95,0,17.91-.16,26.86-.03,1.67,1.35,4.69-1.78,4.75-3,.06-6.72,1.9-8.95-2.01-3.34-5.85-6.7-11.69-11.13-17.33,0,5.19-.25,10.39.08,15.56.26,4.09-1.99,3.99-4.89,4.03-2.93.04-4.52-.35-4.42-3.96.26-8.95,0-17.91.16-26.86.03-1.69-1.35-4.77,1.53-4.88,3.12-.12,7.04-2.18,9.41,2.01,3.3,5.84,6.66,11.65,10,17.47.31-.09.61-.17.92-.26Z"/>
      <path class="cls-2" d="m106.78,151.98c0,3.32.12,6.64-.03,9.95-.21,4.68-2.83,7.51-7.46,7.73-5.95.28-11.93.17-17.89-.02-4.55-.15-7.12-3.06-7.34-7.31-.36-7.11-.36-14.25-.05-21.36.2-4.56,3.06-7.21,7.73-7.55,5.79-.42,11.6-.55,17.38.05,5.1.54,7.4,3,7.64,8.07.17,3.47.03,6.96.03,10.44-.01,0-.02,0-.03,0Zm-23.86-.42c0,2.31-.04,4.63.01,6.94.04,1.88.26,3.53,2.64,4.1,9.25,2.23,12.29-.04,12.29-9.35,0-1.82,0-3.64,0-5.46q-.02-7.44-7.34-7.44-7.61,0-7.62,7.73c0,1.16,0,2.31.01,3.47Z"/>
      <path class="cls-2" d="m233.42,151.78c0,3.15.1,6.31-.03,9.45-.23,5.54-2.73,8.26-8.29,8.52-5.46.25-10.94.12-16.41,0-4.94-.12-7.85-2.94-8.08-7.71-.33-6.94-.33-13.92-.03-20.87.21-4.79,3.15-7.62,8.06-7.75,5.63-.15,11.28-.28,16.89.07,5.37.34,7.57,2.98,7.88,8.35.02.33.01.66.01.99,0,2.98,0,5.97,0,8.95Zm-8.96-.36c0-11.84,0-11.77-10.67-11.09-2.85.18-4.3,1.22-4.28,4.15.04,4.63.07,9.26-.01,13.89-.05,3.17,1.38,4.25,4.52,4.35,10.45.32,10.45.42,10.45-9.81,0-.5,0-.99,0-1.49Z"/>
      <path class="cls-2" d="m42.87,151.61c0-4.97.09-9.94-.04-14.91-.06-2.34.76-3.2,3.13-3.17,7.29.11,14.58.13,21.86,0,2.68-.05,3.42,1.06,3.39,3.53-.03,2.33-.47,3.79-3.27,3.69-4.14-.14-8.29.15-12.42-.07-3.54-.18-3.51,1.89-3.56,4.42-.06,2.69.33,4.55,3.7,4.27,2.47-.2,4.98.1,7.45-.07,2.89-.2,4.18.68,4.15,3.85-.03,3.14-1.63,3.55-4.08,3.34-.33-.03-.66,0-.99,0-9.63.08-9.85.08-10.09,9.56-.11,4.14-2.58,3.32-4.96,3.41-2.44.09-4.59.25-4.36-3.44.3-4.79.07-9.6.07-14.41Z"/>
      <path class="cls-2" d="m270.16,134.15c-3.58,7.03-6.98,13.98-10.64,20.8-1.77,3.3-3.03,6.6-2.53,10.38.43,3.25-.89,4.45-4.18,4.19-2.68-.21-5.61.42-5.03-3.84.61-4.54-1.26-8.37-3.32-12.21-3.35-6.26-6.53-12.61-9.8-18.97,7.64-2.23,8.97-1.66,11.99,4.75,1.68,3.56,3.44,7.07,5.42,11.15,2.76-3.43,3.93-7.03,5.59-10.32,3.68-7.29,3.63-7.31,12.5-5.9Z"/>
      <path class="cls-2" d="m162.62,133.57c3.48,0,6.95.07,10.43-.02,2.67-.07,4.76-.15,4.67,3.72-.08,3.57-2.01,3.81-4.45,3.41-5.41-.87-6.81,1.54-6.47,6.58.39,5.77-.07,11.59.15,17.37.13,3.45-.6,5.03-4.58,4.96-3.65-.07-4.96-.96-4.77-4.75.3-6.11-.17-12.26.16-18.36.24-4.42-.95-6.44-5.7-5.86-1.64.2-4.33,1.21-4.81-1.84-.47-2.94-.56-5.68,3.96-5.29,3.78.33,7.61.07,11.42.07Z"/>
      <path class="cls-1" d="m195.75,149.56c0,3.98.18,7.97-.04,11.93-.31,5.61-2.8,8.01-8.46,8.31-2.64.14-5.3-.2-7.95-.14-2.68.07-3.31-1.28-3.33-3.69-.02-2.66,1.15-3.29,3.61-3.37,7-.24,6.99-.35,7-7.58,0-2.82-.04-5.64.01-8.46.06-3.21.54-6.46-4.55-5.98-2.51.24-1.92-2.17-2-3.7-.09-1.74.04-3.43,2.5-3.3.16,0,.33,0,.5-.01q12.77-1.19,12.77,11.51c0,1.49,0,2.98,0,4.48-.02,0-.03,0-.05,0Z"/>
    </g>
  </g>
</svg>