<?xml version="1.0" encoding="UTF-8"?>
<svg id="Layer_2" data-name="Layer 2" xmlns="http://www.w3.org/2000/svg" viewBox="0 0 309 309">
  <defs>
    <style>
      .cls-1 {
        stroke-width: 0px;
      }
    </style>
  </defs>
  <g id="Layer_1-2" data-name="Layer 1">
    <path class="cls-1" d="m236.86,234.99H74.57V77.17h162.29v157.82Zm-101.63-33.61c-.69,0-1.39,0-2.08,0-1.65-2.22-3.41-4.37-4.91-6.68-1.9-2.92-4.13-3.01-6.73-1.14-4.51,3.25-4.07,9.11,1.02,11.77,4.78,2.49,9.69,1.83,14.42-.28,7.21-3.21,11.2-9.31,13.51-16.44,3.84-11.83,7.35-23.78,10.9-35.7,2.69-9,2.62-9.09,11.74-9.48,3.66-.16,5.11-1.62,4.04-5.7h-11.69c2.37-6.75,4.19-12.96,6.76-18.84,1.36-3.12,4.03-5.66,6.11-8.47,1.67,2.72,3.63,5.3,4.93,8.18,1.66,3.68,4.2,4.11,6.47,1.5,1.75-2.01,3.12-5.16,3.06-7.77-.09-3.93-3.41-5.93-7.11-6.54-8.44-1.39-15.79,1.36-20.84,7.94-4.07,5.31-7.39,11.45-9.79,17.7-1.82,4.73-3.66,7.24-9,6.37-3.65-.59-5.23,1.32-4.33,5.37,2.93.15,5.85.3,9.35.47-5.35,19.51-10.59,38.62-15.83,57.73Z"/>
  </g>
</svg>