<?xml version="1.0" encoding="UTF-8"?>
<svg id="Layer_2" data-name="Layer 2" xmlns="http://www.w3.org/2000/svg" viewBox="0 0 309 309">
  <defs>
    <style>
      .cls-1 {
        stroke-width: 0px;
      }
    </style>
  </defs>
  <g id="Layer_1-2" data-name="Layer 1">
    <path class="cls-1" d="m99.84,232.25V81.77h109.59v43.77h-65.08v14.23h64.99v45.53h-65.29c0,12.79,0,25.03,0,37.28,0,11.49.53,9.57-9.5,9.64-11.43.09-22.86.02-34.72.02Zm91.43-68.55c1.62-4.55-.79-4.74-3.87-4.73-19.59.06-39.19-.13-58.78.14-4.93.07-6.11-1.5-6-6.22.31-13.61.28-27.23.01-40.84-.08-4.33,1.07-5.72,5.54-5.67,19.76.23,39.52.04,59.27.15,3.7.02,5.42-.8,3.77-4.63h-72.97v108.41c1.6-.08,3-.16,4.49-.24,0-13.47,0-26.57,0-39.67q0-6.69,6.5-6.71c20.58,0,41.15,0,62.04,0Z"/>
  </g>
</svg>