<?xml version="1.0" encoding="UTF-8"?>
<svg id="Layer_2" data-name="Layer 2" xmlns="http://www.w3.org/2000/svg" viewBox="0 0 309 309">
  <defs>
    <style>
      .cls-1 {
        fill: #00a94b;
      }

      .cls-1, .cls-2, .cls-3, .cls-4, .cls-5, .cls-6 {
        stroke-width: 0px;
      }

      .cls-2 {
        fill: #004da9;
      }

      .cls-3 {
        fill: #006524;
      }

      .cls-4 {
        fill: #0074eb;
      }

      .cls-5 {
        fill: #fe4131;
      }

      .cls-6 {
        fill: #febc00;
      }
    </style>
  </defs>
  <g id="Layer_1-2" data-name="Layer 1">
    <g>
      <path class="cls-6" d="m153.02,190.72c-6.03,9.5-12.08,18.98-18.07,28.5-1.09,1.73-2.02,3.1-4.52,3.09-19.74-.11-39.49-.06-59.19-.06-.9-1.94.67-2.92,1.38-4.05,25.93-41.42,51.91-82.81,77.9-124.2.79-1.25,1.73-2.41,2.61-3.61-.03,33.44-.07,66.88-.1,100.33Z"/>
      <path class="cls-4" d="m153.02,190.72c.03-33.44.07-66.88.1-100.33,2.3-1.37,4.82-.63,7.22-.64,13.32-.03,26.63.08,39.95.14-.43.23-.83.59-1.29.68-21.94,4.33-27.66,27.93-18.78,42.89,4.68,7.88,11.95,11.41,20.1,13.99-1.46.32-2.92.62-4.37.97-20.55,4.94-33.08,26.3-27.05,46.6,4.48,15.11,15.13,23.68,30.26,27.04-14.21.06-28.41.03-42.62.24-3.14.05-3.4-1.39-3.38-3.88.04-9.24-.07-18.47-.13-27.71Z"/>
      <path class="cls-1" d="m208.57,147.48c19.64,4.15,30.69,15.25,33.07,33.21,2.89,21.87-15.01,41.77-37.26,41.38,0-24.82,0-49.64-.01-74.46.3-.08.59-.19.86-.33,1.11.06,2.22.13,3.33.19Z"/>
      <path class="cls-3" d="m204.38,147.62c0,24.82,0,49.64.01,74.46-1.74,0-3.49,0-5.24,0-15.14-3.36-25.78-11.93-30.26-27.04-6.03-20.31,6.51-41.66,27.05-46.6,1.45-.35,2.92-.65,4.37-.97,1.35.05,2.71.11,4.06.16Z"/>
      <path class="cls-5" d="m98.78,141.54c-14.3.03-25.92-11.6-25.9-25.91.02-14.23,11.84-26.01,25.99-25.91,13.96.1,25.53,11.72,25.64,25.75.11,14.32-11.46,26.04-25.73,26.07Z"/>
      <path class="cls-4" d="m208.57,147.48c-1.11-.06-2.22-.13-3.33-.19-1.06-1.64-.85-3.49-.85-5.3,0-17.37,0-34.75.01-52.12,14.63-.09,27,10.65,28.73,24.94,1.79,14.76-7.56,28.33-21.81,31.71-.94.22-1.84.63-2.76.96Z"/>
      <path class="cls-2" d="m204.41,89.88c0,17.37,0,34.75-.01,52.12,0,1.81-.21,3.66.85,5.3-.28.14-.57.25-.87.33-1.35-.05-2.71-.11-4.06-.16-8.14-2.58-15.41-6.1-20.1-13.99-8.88-14.96-3.16-38.56,18.78-42.89.46-.09.86-.45,1.29-.68,1.37,0,2.75-.02,4.12-.03Z"/>
    </g>
  </g>
</svg>