<?xml version="1.0" encoding="UTF-8"?>
<svg id="Layer_2" data-name="Layer 2" xmlns="http://www.w3.org/2000/svg" viewBox="0 0 190.69 190.19">
  <defs>
    <style>
      .cls-1 {
        fill: #fff;
        stroke-width: 0px;
      }
    </style>
  </defs>
  <g id="Layer_1-2" data-name="Layer 1">
    <path class="cls-1" d="m0,190.19c1.72-2.9,3.05-5.15,4.38-7.4,19.32-32.65,38.73-65.24,57.84-98.01,2.39-4.1,4.96-5.42,9.42-4.86,5.42.68,10.91,1.14,16.36,1.11,2.32-.01,5.26-.88,6.85-2.44,16.81-16.49,33.44-33.16,49.96-49.93,1.38-1.4,2.31-3.93,2.27-5.91C146.85,10.29,156.15.25,168.5,0c12.38-.24,22.22,9.43,22.19,21.82-.02,12.41-9.73,21.67-22.34,21.76-2.28.02-5.13,1.14-6.75,2.73-16.56,16.27-32.87,32.79-49.38,49.11-2.36,2.33-3.19,4.55-2.77,7.86.78,6.24,1.15,12.55,1.35,18.84.05,1.47-.87,3.67-2.03,4.36-35.72,21.27-71.53,42.4-107.33,63.55-.12.07-.3.04-1.44.16ZM168.96,32.62c6.02,0,10.69-4.61,10.79-10.62.1-6.27-4.59-11.07-10.83-11.06-5.93.01-10.79,4.72-10.94,10.6-.15,6,4.89,11.09,10.98,11.08Zm-38.72,20.26v7.42h7.39v-7.42h-7.39Zm-11.96,12.24v7.39h7.38v-7.39h-7.38Zm-12.09,12.05v7.51h7.26v-7.51h-7.26Zm36.45-29.22h7.32v-7.3h-7.32v7.3Z"/>
  </g>
</svg>