<?xml version="1.0" encoding="UTF-8"?>
<svg id="Layer_2" data-name="Layer 2" xmlns="http://www.w3.org/2000/svg" viewBox="0 0 309 309">
  <defs>
    <style>
      .cls-1 {
        fill: #fe0700;
        stroke-width: 0px;
      }
    </style>
  </defs>
  <g id="Layer_1-2" data-name="Layer 1">
    <g>
      <path class="cls-1" d="m80.17,219.46c0-42.24,0-84.48-.03-126.71,0-1.8-.17-3.25,2.38-3.24,17.39.06,34.78.03,52.71.03-18.25,43.7-36.29,86.88-54.33,130.05-.24-.04-.49-.09-.73-.13Z"/>
      <path class="cls-1" d="m230.62,221.11c-18.54-44.4-36.61-87.68-54.94-131.59,11.03,0,21.43,0,31.84,0,6.47,0,12.95.14,19.42-.06,2.98-.09,3.81.61,3.8,3.82-.16,39.67-.11,79.34-.11,119.01,0,2.47,0,4.94,0,8.82Z"/>
      <path class="cls-1" d="m131.66,195.47c7.97-18.84,15.67-37.03,23.76-56.16,11.79,27.96,23.33,55.31,35.07,83.14-7.07,0-13.66-.05-20.25.03-2.11.03-2.75-1.16-3.41-2.86-2.67-6.93-5.62-13.76-8.19-20.73-.96-2.61-2.3-3.56-5.07-3.48-7.08.18-14.16.06-21.91.06Z"/>
    </g>
  </g>
</svg>