<?xml version="1.0" encoding="UTF-8"?>
<svg id="Layer_2" data-name="Layer 2" xmlns="http://www.w3.org/2000/svg" viewBox="0 0 309 309">
  <defs>
    <style>
      .cls-1 {
        fill: #5754e4;
      }

      .cls-1, .cls-2, .cls-3, .cls-4, .cls-5, .cls-6, .cls-7, .cls-8, .cls-9, .cls-10, .cls-11, .cls-12, .cls-13, .cls-14, .cls-15, .cls-16, .cls-17, .cls-18, .cls-19, .cls-20, .cls-21, .cls-22, .cls-23, .cls-24, .cls-25, .cls-26 {
        stroke-width: 0px;
      }

      .cls-2 {
        fill: #2390db;
      }

      .cls-3 {
        fill: #485ae8;
      }

      .cls-4 {
        fill: #5645ee;
      }

      .cls-5 {
        fill: #465ee6;
      }

      .cls-6 {
        fill: #199fd7;
      }

      .cls-7 {
        fill: #6345e5;
      }

      .cls-8 {
        fill: #04bfcd;
      }

      .cls-9 {
        fill: #7b2ae7;
      }

      .cls-10 {
        fill: #6d38e7;
      }

      .cls-11 {
        fill: #10abd3;
      }

      .cls-12 {
        fill: #426be2;
      }

      .cls-13 {
        fill: #268bdc;
      }

      .cls-14 {
        fill: #1e94da;
      }

      .cls-15 {
        fill: #3379e0;
      }

      .cls-16 {
        fill: #1e95d9;
      }

      .cls-17 {
        fill: #eef1fb;
      }

      .cls-18 {
        fill: #3b71e1;
      }

      .cls-19 {
        fill: #623aed;
      }

      .cls-20 {
        fill: #2a84dd;
      }

      .cls-21 {
        fill: #6c39e6;
      }

      .cls-22 {
        fill: #0daed2;
      }

      .cls-23 {
        fill: #3b72e1;
      }

      .cls-24 {
        fill: #307be0;
      }

      .cls-25 {
        fill: #3b6fe2;
      }

      .cls-26 {
        fill: #4c59e6;
      }
    </style>
  </defs>
  <g id="Layer_1-2" data-name="Layer 1">
    <g>
      <path class="cls-8" d="m30.8,147.08c1.07-20.55,24.89-40.35,45.02-37.23,6.35.98,11.81,3.74,13.91,10.46,1.9,6.09.18,11.43-4.04,16.04-1.37,1.49-3.05,2.59-5,3.12-1.26.34-2.67.64-3.76-.43-1.23-1.22-.39-2.56.2-3.65,1.59-2.95,2.83-6.01,3.11-9.36.62-7.38-4.36-11.75-11.55-10.03-6.79,1.62-11.66,6.1-15.86,11.39-4.51,5.67-7.21,12.24-9.14,19.15-4.4-1.88-8.36-1.94-11.83,2.1-.65.76-.8-.92-1.06-1.55Z"/>
      <path class="cls-9" d="m271.23,152.57c-1.77,6.81-3.23,13.67-3.27,20.75,0,1.48-.18,3.2,1.6,3.79,1.65.54,2.81-.7,3.83-1.77,2.09-2.19,3.31-4.93,4.54-7.64.51-1.12.5-2.97,2.31-2.57,1.53.34,1.56,1.91,1.59,3.28.14,5.81-6.14,13.35-12.6,15.1-6.16,1.67-9.32-.06-13.44-7.61-4.16,5.24-8.81,9.66-16.14,7.77-4.42-1.14-6.95-4.21-7.52-8.8.18-.97.32-2.27,1.49-2.22,4.05.17,5.71-3.18,8.18-5.41.83,1.39-.15,3.15,1.24,4.22.85,2.09,1.14,4.72,4.07,5.03,2.98.32,4.4-1.93,5.79-3.98,3.29-4.87,4.65-10.46,5.8-16.12,5.42,2.83,8.56-1.86,12.53-3.82Z"/>
      <path class="cls-24" d="m46.86,175.39c8.33,8.91,18.95,9.43,28.25,1.35,1.24-1.07,2.42-2.21,3.63-3.31.51,3.08,2.95,1.64,4.63,1.97-9.87,14.18-21.52,17.42-35,13.85-5.9-1.56-10.64-5.18-13.47-10.85,3.69-2.16,8.15-1.26,11.94-3.01Z"/>
      <path class="cls-15" d="m124.53,162.46c-.38,4.32-1.39,8.59-1.02,12.97-3.29,1.33-6.59,2.66-9.88,3.99-.69-1.07-1.37-2.14-2.28-3.57-1.96,2.31-3.7,4.66-6.21,6.2-7.25,4.45-14.65,1.83-17.54-6.1-.53-1.45-.1-3.36-1.83-4.31,2.43-2.8,1.47,2.62,3.75,1.46,3.4-1.74,8.13-1.46,8.96-6.63.06,1.31.08,2.63.2,3.93.24,2.5.59,5.15,3.43,5.95,2.88.81,4.67-1.24,5.96-3.37,1.69-2.78,3.04-5.76,4.53-8.65,1.75,1.92,3.43.19,4.83-.41,2.33-.99,4.6-1.66,7.11-1.46Z"/>
      <path class="cls-7" d="m226.44,149.93c.33,1.02-1.69,1.88-.18,3.01,1.09.82,2.01.5,3.15,0,3.38-1.49,6.17-3.63,8.56-6.46,1.79-2.12,3.73-4.22,5.95-5.85,6.74-4.96,12.2-4.06,18.21,2.69-.89,1.67-2.89,1.34-4.17,2.3-2.49-1.87-4.54-.91-6.58.9-2.27,2.01-3.29,4.87-5.12,7.17-1.28-1.86-2.16-.38-3.09.39-3,2.48-6.31,3.94-10.3,3.35-2.14-1.08-9.03.22-10.2,1.94-.72,1.07-1.37,2.18-2.06,3.28-1.46-.8-3-1.29-4.68-1.27.19-2.35,3.96-4.47.44-7.05,2.87-1.82,5.7-3.7,8.62-5.42.6-.36,1.14.43,1.45,1.03Z"/>
      <path class="cls-11" d="m87.8,158.47c2.04-7.74,6.05-14.19,12.86-18.53,6.63-4.23,11.83-3.09,16.72,3.48,2.34-4.02,5.92-5.75,10.33-4.96,1.8.32,2.15,2.27,1.87,4.06-5.89-.66-10.78,1.68-15.3,5.11-2.62-3.83-4.4-4.01-7.73-.83-2.84,2.71-4.02,6.41-5.94,9.68-1.79-1.07-3.52-.92-5.53-.32-2.45.73-4.53,2.62-7.29,2.33Z"/>
      <path class="cls-20" d="m165.67,149.55c-1.39-2.54-2.79-.92-3.9.15-1.89,1.82-3.59,3.85-5.37,5.8-4.88-.63-8.53,2.73-12.82,4.01-1.84.55-3.58,1.92-5.2-.31.39-2.38.88-4.73,2.04-6.89,4.39.1,7.87-2.66,11.88-3.76-.14,1.43-.28,2.86-.5,4.99,2.44-3.16,4.36-5.91,6.58-8.41,1.74-1.96,3.7-3.79,5.83-5.31,2.9-2.07,6.21-3.53,9.64-1.33,3.22,2.06,4.11,5.32,3.54,9.02-4.15-.71-7.51,3.18-11.74,2.03Z"/>
      <path class="cls-19" d="m215.93,161.36c1.68-.03,3.22.47,4.68,1.27-3.5,6.78-7.93,12.88-13.72,17.87-6.34,5.47-10.38,4.49-13.49-3.17-1.11-2.73-2.19-5.52-2.11-8.57.92-3.56,4.9-2.71,6.85-4.75,2.43-2.54,3.07-.24,3.98,1.4.93,3.03-.14,7.91,3.19,8.63,3.21.7,4.75-3.88,6.67-6.45,1.47-1.97,2.65-4.15,3.95-6.24Z"/>
      <path class="cls-3" d="m113.63,179.43c3.29-1.33,6.59-2.66,9.88-3.99,4.34,3.38,5.83-1.19,8.32-2.98,2.68.29,5.1-.69,7.59-1.43,3.39-1.01,6.57-2.94,10.32-2.51-1.09,3.44-2.37,6.83-3.22,10.33-.76,3.09-2.16,5.25-5.56,5.15-3.66-.1-5.08-2.59-5.54-5.85-.09-.65-.14-1.31-.28-2.67-4.5,4.57-8.52,9.54-15.45,8.43-2.68-.43-4.99-1.73-6.06-4.5Z"/>
      <path class="cls-14" d="m87.8,158.47c2.76.29,4.84-1.6,7.29-2.33,2.01-.6,3.74-.75,5.53.32-.72,3.33-1.43,6.67-2.15,10-.83,5.17-5.55,4.9-8.96,6.63-2.28,1.16-1.32-4.26-3.75-1.46-.79,1.25-1.59,2.5-2.38,3.76-1.68-.33-4.12,1.11-4.63-1.97,3.69-4.58,6.4-9.75,9.05-14.96Z"/>
      <path class="cls-21" d="m257.95,145.61c1.28-.96,3.28-.63,4.17-2.3,1.07-1.23,1.97-2.69,3.25-3.65,2.31-1.74,4.99-2.9,7.79-1.16,2.98,1.85,1.15,4.41.55,6.65-.68,2.51-1.63,4.95-2.47,7.43-3.97,1.95-7.1,6.64-12.53,3.82.66-3.66.64-7.27-.76-10.78Z"/>
      <path class="cls-4" d="m187.53,168.76c-1.83,5.1-4.97,9.29-9.2,12.58-3.32,2.58-7.12,3.71-11.08,1.62-3.72-1.96-5.22-5.33-4.88-9.5,4.03,1.26,7.41-1.07,11.05-2,1.06,4.22,3.44,3.84,5.89,1.42,1.94-1.91,3.45-4.26,5.15-6.41,1.58.01,2.53.87,3.07,2.29Z"/>
      <path class="cls-22" d="m30.8,147.08c.26.64.41,2.31,1.06,1.55,3.47-4.05,7.43-3.99,11.83-2.1-.33,2.34-.66,4.69-1,7.03-1.32,1.37-.75,3.08-.81,4.66-.07,1.53-.09,2.88-2,3.38-3.27.86-6.5,1.88-9.75,2.83-.01-5.8-1.11-11.63.67-17.36Z"/>
      <path class="cls-25" d="m149.74,168.52c-3.74-.43-6.93,1.5-10.32,2.51-2.49.74-4.92,1.72-7.59,1.43,2.19-4.42,4.38-8.84,6.57-13.26,1.62,2.23,3.36.86,5.2.31,4.29-1.28,7.94-4.64,12.82-4.01-2.22,4.34-4.45,8.68-6.67,13.03Z"/>
      <path class="cls-16" d="m30.13,164.44c3.25-.95,6.48-1.97,9.75-2.83,1.91-.5,1.93-1.85,2-3.38.07-1.58-.51-3.3.81-4.66-.07,7.56.49,14.99,4.17,21.83-3.79,1.75-8.25.85-11.94,3.01-3.07-4.15-4.31-8.92-4.79-13.96Z"/>
      <path class="cls-26" d="m187.53,168.76c-.54-1.41-1.49-2.28-3.07-2.29,1.4-4.01,2.8-8.02,4.2-12.03,4.46-1.01,7.97-4.44,12.63-4.93.27,5.3.55,10.6.82,15.89-.91-1.64-1.54-3.95-3.98-1.4-1.95,2.04-5.93,1.18-6.85,4.75-.43-1.2-.86-2.4-1.35-3.76-.84,1.32-1.62,2.55-2.4,3.77Z"/>
      <path class="cls-10" d="m232.86,157.41c3.99.58,7.3-.87,10.3-3.35.93-.77,1.81-2.25,3.09-.39-2.26,5.71-3.51,11.61-3.2,17.79-1.39-1.07-.41-2.83-1.24-4.22-2.47,2.23-4.13,5.58-8.18,5.41-1.18-.05-1.32,1.25-1.49,2.22-1.99-5.91-1.54-11.72.72-17.46Z"/>
      <path class="cls-12" d="m211.34,145.54c-1.68-5.26-.07-9.79,3.38-13.7,2.33-2.64,5.47-3.85,8.97-2.82,3.6,1.06,5.23,3.8,5.34,7.49-2.31-1.72-3.9.46-5.78,1.06-.69-.99-.67-2.87-2.48-2.52-1.2.24-1.71,1.52-1.94,2.64-.34,1.59-.46,3.23-.67,4.85-2.25,1.05-4.26,2.63-6.82,3Z"/>
      <path class="cls-18" d="m201.29,149.52c-4.66.49-8.18,3.92-12.63,4.93.27-2.8.35-5.63.84-8.39.74-4.16,2.66-7.55,7.26-8.42,4.38-.84,5.71.52,5.17,4.96-.28,2.3-.43,4.61-.63,6.92Z"/>
      <path class="cls-1" d="m223.25,137.56c1.88-.6,3.48-2.78,5.78-1.06.57,4.75-.52,9.18-2.59,13.42-.31-.61-.84-1.39-1.45-1.03-2.92,1.72-5.76,3.6-8.62,5.42-3.07-2.12-4.95-4.93-5.04-8.77,2.55-.36,4.57-1.94,6.82-3,.6,2.14.5,4.57,2.58,6.45,1.86-3.73,1.88-7.65,2.52-11.43Z"/>
      <path class="cls-5" d="m173.41,171.46c-3.63.93-7.02,3.26-11.05,2-.59-4.1.07-8.07,1.28-11.98,3.99-.98,7.97-1.97,11.96-2.95l-2.19,12.93Z"/>
      <path class="cls-13" d="m152.31,148.55c-4.01,1.1-7.49,3.86-11.88,3.76.34-3.1,1.01-6.2.94-9.29-.09-3.55,1.96-4.62,4.74-5.11,3.08-.54,5.12.98,6.05,3.8.73,2.21.55,4.55.15,6.84Z"/>
      <path class="cls-23" d="m175.6,158.54c-3.99.98-7.97,1.97-11.96,2.95.67-3.98,1.35-7.96,2.02-11.94,4.23,1.15,7.58-2.74,11.74-2.03.42,3.84-.32,7.49-1.8,11.02Z"/>
      <path class="cls-2" d="m124.53,162.46c-2.52-.2-4.79.47-7.11,1.46-1.39.6-3.08,2.32-4.83.41.71-3.28,1.41-6.56,2.12-9.84,4.16-1.2,8.01-3.69,12.62-2.99-.93,3.66-1.87,7.31-2.8,10.97Z"/>
      <path class="cls-6" d="m127.33,151.49c-4.61-.69-8.46,1.8-12.62,2.99-.14-2.29-.28-4.57-.42-6.86,4.53-3.42,9.41-5.77,15.3-5.11.03,3.19-1.4,6.01-2.25,8.97Z"/>
      <path class="cls-17" d="m223.25,137.56c-.64,3.77-.66,7.69-2.52,11.43-2.08-1.88-1.97-4.3-2.58-6.45.21-1.62.34-3.26.67-4.85.24-1.12.74-2.41,1.94-2.64,1.81-.36,1.79,1.52,2.48,2.52Z"/>
    </g>
  </g>
</svg>