<?xml version="1.0" encoding="UTF-8"?>
<svg id="Layer_2" data-name="Layer 2" xmlns="http://www.w3.org/2000/svg" viewBox="0 0 309 309">
  <defs>
    <style>
      .cls-1 {
        fill: #b8b3bb;
      }

      .cls-1, .cls-2, .cls-3 {
        stroke-width: 0px;
      }

      .cls-2 {
        fill: #eae8ea;
      }

      .cls-3 {
        fill: #3d2d43;
      }
    </style>
  </defs>
  <g id="Layer_1-2" data-name="Layer 1">
    <g>
      <path class="cls-3" d="m209.21,185.34c.53-1.16.67-2.87,2.34-2.8,1.81.08,1.85,1.81,1.72,3.05-.35,3.16,1.37,4.25,4.02,5.2,3.29,1.18,6.08,3.3,8.44,5.98,2.64,3,2.16,5.34-1.23,7.21-4.67,2.58-9.75,4.18-14.8,5.76-3.29,1.03-3.9,2.65-2.36,5.42,1.12,2.02,2.39,3.96,3.57,5.94.55.91,2.13,1.67,1.1,2.87-.79.92-2.22.43-3.32.1-3.52-1.05-5.94-3.47-7.95-6.44-.77-1.13-.77-3.81-3.29-2.15-2.39,1.59-.31,2.75.57,3.97.46.64.97,1.25,2.28,2.92-6.2-.45-12.16-3.56-15.88,2.75.17.09.72.37,1.25.69,2.5,1.51,5.28,3.64,4.51,6.46-.74,2.71-4.03.6-6.15.88-2.79.36-5.62.34-8.43.54-2.24.16-4.31.97-6.16-1.65-1.5-2.13-4.3-.56-6.51-.41-2.8.19-6.13,1.98-6.76-2.96-.08-.59-1.54-1.04-2.4-1.48-12.53-6.4-14.85-16.57-7.86-29.05,8.39-14.97,10.5-30.96,4.45-47.44-2.04-5.56-2.27-5.35-6.62-1.74-10.47,8.7-21.81,15.76-35.83,16.92-12.57,1.04-20.53-5.58-22.25-18.18-2.92-21.32,5.31-38.21,21.66-51.04,18.55-14.57,39.33-23.24,63.68-19.93,34.85,4.74,53.47,41.12,36.78,72.14-7.86,14.61-19.64,25.81-32.47,36-1.39,1.11-2.74,2.27-5.26,4.35,9.55-.51,17.13,3.85,25.54,2.85,3.97-.47,7.97-.34,8.38-5.99.12-1.6,1.4-4.73,3.44-.73-.15.9-.31,2.4.41,2.43,1.23.05,1.54-1.25,1.39-2.44Zm7.71,11.94c.94-.2,1.44-.8,1.37-1.75-.07-1.02-.83-1.39-1.72-1.34-.95.06-1.53.62-1.34,1.64.17.89.69,1.48,1.69,1.45Z"/>
      <path class="cls-1" d="m209.21,185.34c.15,1.19-.16,2.5-1.39,2.44-.72-.03-.56-1.53-.41-2.43.6,0,1.2,0,1.8-.01Z"/>
      <path class="cls-2" d="m216.92,197.27c-1,.03-1.52-.56-1.69-1.45-.19-1.02.39-1.58,1.34-1.64.89-.05,1.64.33,1.72,1.34.07.94-.43,1.54-1.36,1.74Z"/>
    </g>
  </g>
</svg>