<?xml version="1.0" encoding="UTF-8"?>
<svg id="Layer_2" data-name="Layer 2" xmlns="http://www.w3.org/2000/svg" viewBox="0 0 309 309">
  <defs>
    <style>
      .cls-1 {
        stroke-width: 0px;
      }
    </style>
  </defs>
  <g id="Layer_1-2" data-name="Layer 1">
    <g>
      <path class="cls-1" d="m111.71,191.35c0-7.58.17-15.16-.08-22.72-.12-3.6.74-5.12,4.63-4.92,3.32.17,5.52.13,5.46,4.68-.26,17.99-.06,35.98-.19,53.97-.01,1.46-1.21,2.91-1.86,4.37-1.39-.93-3.34-1.53-4.08-2.83-4.79-8.34-9.31-16.84-13.94-25.27-.58-1.06-1.3-2.06-2.91-2.81v30.88c-2.73,0-5.02.32-7.16-.13-1.13-.24-2.83-1.81-2.84-2.8-.17-18.99-.15-37.98-.04-56.96,0-.99,1.47-2.9,1.73-2.81,1.85.64,4.29,1.21,5.2,2.66,4.23,6.74,8.03,13.76,11.99,20.67.86,1.51,1.74,3.02,2.62,4.52.49-.16.98-.33,1.47-.49Z"/>
      <path class="cls-1" d="m171.32,146.88c-1.57-1.16-3.71-1.98-4.62-3.52-4.61-7.87-8.89-15.93-13.3-23.92-.81-1.48-1.68-2.92-2.53-4.38l-1.18.4v30.45h-9.85v-61.48c3.57-1.51,5.81-.52,7.64,2.89,3.84,7.16,8,14.15,12.06,21.19.61,1.06,1.4,2.02,2.95,4.25v-28.5h9.83v61.14c-.33.5-.67.99-1,1.49Z"/>
      <path class="cls-1" d="m161.31,163.94h9.75c.29.35.68.6.68.86-.05,15.97.45,31.97-.39,47.9-.66,12.4-9.98,17.85-21.9,14.12-4.35-1.36-6.81-4.56-8.14-8.73-.56-1.74-1.16-3.56-1.17-5.35-.09-16.09-.05-32.19-.05-48.61h10.34c0,1.86,0,3.62,0,5.39,0,11.99-.06,23.98.06,35.96.03,2.8.21,5.75,1.12,8.34.54,1.56,2.68,3.61,4.02,3.56,1.67-.07,3.7-1.78,4.76-3.35.91-1.36.9-3.49.91-5.29.06-12.49.02-24.97.01-37.46,0-2.29,0-4.59,0-7.35Z"/>
      <path class="cls-1" d="m97.36,114.87c1.43-7.28,2.32-14.39,4.3-21.17,2.01-6.87,7.63-10.66,14.06-10.57,6.86.09,11.76,3.43,14.06,9.87,5.22,14.59,5.22,29.31.03,43.9-2.28,6.41-7.06,9.86-14.04,9.84-7.01-.01-11.99-3.6-13.92-10-2.14-7.07-3.04-14.51-4.49-21.87Zm25.65.06c-.8-5.41-1.19-10.57-2.47-15.51-.52-2-2.96-3.51-4.53-5.24-1.74,1.8-4.53,3.34-5.04,5.43-2.54,10.45-2.48,21.09.06,31.55.48,1.97,3.06,3.42,4.67,5.11,1.64-1.61,4.27-2.98,4.74-4.89,1.33-5.43,1.79-11.08,2.56-16.46Z"/>
      <path class="cls-1" d="m237.98,163.81v10.34c-3.67,0-7.25.16-10.82-.05-3.09-.18-4.19,1.06-3.97,4.06.25,3.47-.98,8,.78,10.12,1.6,1.93,6.33,1.26,10.02,1.79v9.21c-.45.19-.88.49-1.34.55-3.04.4-8.42.13-8.71,1.23-1.1,4.21-.73,8.86-.5,13.33.04.72,2.08,1.83,3.25,1.91,3.61.25,7.25.09,11.31.09v10.29c-7.78,0-15.38.11-22.97-.13-1-.03-2.78-1.84-2.79-2.84-.16-18.98-.16-37.96.01-56.94,0-1,1.8-2.8,2.81-2.83,7.44-.24,14.89-.13,22.92-.13Z"/>
      <path class="cls-1" d="m176.52,224.56c1.41-3.87,2.41-6.62,3.46-9.49,2.52.58,4.77,1.59,6.96,1.49,2.6-.13,6.32-.44,7.41-2.1,1.12-1.71.33-5.47-.82-7.71-1.79-3.5-4.96-6.28-6.86-9.74-3.07-5.59-6.76-11.24-8.06-17.32-2.02-9.45,4.26-16.25,13.93-16.44,3.53-.07,7.08.92,11.3,1.53-1.2,3.82-2.17,6.88-2.67,8.47-4.58,1.12-9.43.85-11.13,3.04-2.81,3.61.97,7.32,3.24,10.55,3.15,4.48,6.47,8.85,9.44,13.44,1.33,2.05,2.3,4.44,2.92,6.81,3.07,11.83-3,19.89-15.21,19.73-4.47-.06-8.93-1.41-13.9-2.26Z"/>
      <path class="cls-1" d="m214.96,134.8c2.95.73,5.34,1.8,7.71,1.76,2.26-.03,5.21-.6,6.53-2.11,1.07-1.23.94-4.61,0-6.29-2.49-4.46-5.96-8.37-8.55-12.78-2.73-4.66-5.69-9.44-7.11-14.56-2.44-8.81,2.71-15.88,11.66-17.43,1.3-.22,2.64-.29,3.96-.25,10.1.29,10.96,1.85,6.03,11.3-.66-.08-1.45-.35-2.19-.23-2.75.44-6.86.16-7.84,1.76-1.1,1.8-.06,5.77,1.3,8.04,3.14,5.24,7.19,9.93,10.58,15.04,1.63,2.45,3.03,5.22,3.78,8.05,3,11.27-2.94,19.31-14.61,19.4-4.8.04-9.61-1.24-14.81-1.97,1.45-3.96,2.46-6.72,3.55-9.72Z"/>
      <path class="cls-1" d="m91.33,113.35v9.56c-3.9.19-7.6.38-11.76.59v22.54h-10.51v-61.76h24.82c.19.29.49.55.51.84q.69,8.93-8.24,8.93c-6.54,0-6.58,0-6.52,6.38.04,3.81-1.15,8.77.77,11.07,1.75,2.1,6.94,1.32,10.92,1.85Z"/>
      <path class="cls-1" d="m199.39,146.09h-11.07c0-4.77,0-9.38,0-13.99,0-10.83-.2-21.67.1-32.49.12-4.3-.91-6.3-5.46-5.63-1.41.21-2.91-.14-4.66-.25v-9.5h31.14v9.07c-.46.26-.73.54-1.02.56q-9.03.64-9.03,9.66c0,13.97,0,27.94,0,42.56Z"/>
      <path class="cls-1" d="m69.2,164.02h10.16v62.41h-10.16v-62.41Z"/>
    </g>
  </g>
</svg>