<?xml version="1.0" encoding="UTF-8"?>
<svg id="Layer_2" data-name="Layer 2" xmlns="http://www.w3.org/2000/svg" viewBox="0 0 309 309">
  <defs>
    <style>
      .cls-1 {
        fill: #47e73a;
        stroke-width: 0px;
      }
    </style>
  </defs>
  <g id="Layer_1-2" data-name="Layer 1">
    <path class="cls-1" d="m152.79,139.86c4.54,9.92,23.89,38.32,32.45,47.57,6.92-9.25,8.91-19.8,9.12-30.9.03-1.5-.69-2.04-2.11-2.01-1.83.04-3.7-.26-5.47.05-5.33.94-6.01-1.86-5.6-6.18.2-2.05.66-2.91,2.86-2.89,10.29.09,20.59.11,30.88,0,3.78-.04,2.67,2.63,2.65,4.5-.02,1.85,1.19,4.62-2.61,4.55-2.62-.05-5.86-.66-7.71.6-2.04,1.39-.76,4.93-1.25,7.51-2.04,10.64-6.58,20.16-12.92,28.8-1.9,2.59-1.72,4.25.41,6.29,1.43,1.37,2.84,2.84,3.93,4.49,2.6,3.93,5.89,6.07,10.78,5.1,3.81-.76,3.86,1.67,3.8,4.42-.05,2.61.28,5.01-3.71,4.62-3.45-.34-7-.37-10.45,0-7.36.79-13.78-.23-17.87-7.32-1.66-2.88-3.48-1.16-5.36-.07-11.23,6.51-23.06,10.76-36.32,10.33-27.98-.92-47.85-27.11-40.59-53.87,3.78-13.94,13.99-21.81,26.74-26.67,4.6-1.75,5.19-2.97,2.52-7.28-5.12-8.26-8.75-17.27-7.01-27.35,2.89-16.75,18.78-27.01,37.13-24.09,11.39,1.81,20.74,6.79,24.11,18.61,3.55,12.42-.46,22.84-10.23,31.14-5.39,4.57-11.8,7.3-18.19,10.06Zm.64,67.44c4.02-.04,10.73-2.05,16.94-5.89,1.44-.89,2.32-1.61.88-3.35-13.38-16.29-24.94-33.84-35.89-51.82-.83-1.36-1.66-1.68-3.2-.9-8.98,4.52-15.99,10.63-17.64,21.22-3.35,21.56,13.46,40.77,38.91,40.75Zm12.16-102.39c.02-12.67-7.41-19.03-17.94-15.36-5.83,2.03-9.89,7.53-10.1,13.98-.33,10.1,4.86,18.32,9.27,26.8,1.09,2.09,2.41.99,3.66.21,9.48-5.92,15.12-14.11,15.1-25.63Z"/>
  </g>
</svg>